REM DIRINDEX 1\2\6,1\2\7,1\2\8,1\2\9,1\3\10,1\3\11,1\4\12,1\4\13,1\4\14,1\5\15,1\5\16,1\5\17
REM DIRNAME folder01,folder02,folder03,folder04,folder05,folder06,folder07,folder08,folder09,folder10,folder11,folder12,folder13,folder14,folder15,folder16,folder17
TITLE ""
FILE "1900_3_005 sec01_0064_0078.mp3" MP3
  TRACK 01 AUDIO
    TITLE "0:"
    INDEX 01 00:00:00
  TRACK 02 AUDIO
    TITLE "17:cjc020_6094"
    INDEX 01 00:00:17
  TRACK 03 AUDIO
    TITLE "0:"
    INDEX 01 00:01:24
  TRACK 04 AUDIO
    TITLE "16:cjc020_6095"
    INDEX 01 00:01:26
  TRACK 05 AUDIO
    TITLE "0:"
    INDEX 01 00:02:40
  TRACK 06 AUDIO
    TITLE "17:cjc020_6096"
    INDEX 01 00:03:27
  TRACK 07 AUDIO
    TITLE "0:"
    INDEX 01 00:04:38
  TRACK 08 AUDIO
    TITLE "16:cjc020_6097"
    INDEX 01 00:04:40
  TRACK 09 AUDIO
    TITLE "0:"
    INDEX 01 00:05:46
  TRACK 10 AUDIO
    TITLE "17:cjc020_6098"
    INDEX 01 00:06:26
  TRACK 11 AUDIO
    TITLE "0:"
    INDEX 01 00:07:37
  TRACK 12 AUDIO
    TITLE "16:cjc020_6099"
    INDEX 01 00:07:43
  TRACK 13 AUDIO
    TITLE "0:"
    INDEX 01 00:08:58
  TRACK 14 AUDIO
    TITLE "17:cjc020_6100"
    INDEX 01 00:09:42
  TRACK 15 AUDIO
    TITLE "0:"
    INDEX 01 00:11:35
  TRACK 16 AUDIO
    TITLE "16:cjc020_6101"
    INDEX 01 00:11:40
  TRACK 17 AUDIO
    TITLE "0:"
    INDEX 01 00:12:67
  TRACK 18 AUDIO
    TITLE "17:cjc020_6102"
    INDEX 01 00:13:49
  TRACK 19 AUDIO
    TITLE "0:"
    INDEX 01 00:14:64
  TRACK 20 AUDIO
    TITLE "16:cjc020_6103"
    INDEX 01 00:14:70
  TRACK 21 AUDIO
    TITLE "0:"
    INDEX 01 00:16:10
  TRACK 22 AUDIO
    TITLE "17:cjc020_6104"
    INDEX 01 00:16:69
  TRACK 23 AUDIO
    TITLE "0:"
    INDEX 01 00:18:09
  TRACK 24 AUDIO
    TITLE "16:cjc020_6105"
    INDEX 01 00:18:11
  TRACK 25 AUDIO
    TITLE "0:"
    INDEX 01 00:19:22
  TRACK 26 AUDIO
    TITLE "17:cjc020_6106"
    INDEX 01 00:20:08
  TRACK 27 AUDIO
    TITLE "0:"
    INDEX 01 00:22:30
  TRACK 28 AUDIO
    TITLE "16:cjc020_6107"
    INDEX 01 00:22:38
  TRACK 29 AUDIO
    TITLE "0:"
    INDEX 01 00:23:46
  TRACK 30 AUDIO
    TITLE "17:cjc020_6108"
    INDEX 01 00:24:33
  TRACK 31 AUDIO
    TITLE "0:"
    INDEX 01 00:25:27
  TRACK 32 AUDIO
    TITLE "16:cjc020_6109"
    INDEX 01 00:25:31
  TRACK 33 AUDIO
    TITLE "0:"
    INDEX 01 00:26:30
  TRACK 34 AUDIO
    TITLE "17:cjc020_6110"
    INDEX 01 00:27:14
  TRACK 35 AUDIO
    TITLE "0:"
    INDEX 01 00:28:15
  TRACK 36 AUDIO
    TITLE "16:cjc020_6111"
    INDEX 01 00:28:21
  TRACK 37 AUDIO
    TITLE "0:"
    INDEX 01 00:29:34
  TRACK 38 AUDIO
    TITLE "17:cjc020_6112"
    INDEX 01 00:30:16
  TRACK 39 AUDIO
    TITLE "0:"
    INDEX 01 00:31:22
  TRACK 40 AUDIO
    TITLE "16:cjc020_6113"
    INDEX 01 00:31:29
  TRACK 41 AUDIO
    TITLE "0:"
    INDEX 01 00:32:25
  TRACK 42 AUDIO
    TITLE "17:cjc020_6114"
    INDEX 01 00:33:09
  TRACK 43 AUDIO
    TITLE "0:"
    INDEX 01 00:34:04
  TRACK 44 AUDIO
    TITLE "16:cjc020_6115"
    INDEX 01 00:34:10
  TRACK 45 AUDIO
    TITLE "0:"
    INDEX 01 00:35:19
  TRACK 46 AUDIO
    TITLE "17:cjc020_6116"
    INDEX 01 00:36:03
  TRACK 47 AUDIO
    TITLE "0:"
    INDEX 01 00:37:20
  TRACK 48 AUDIO
    TITLE "16:cjc020_6117"
    INDEX 01 00:37:22
  TRACK 49 AUDIO
    TITLE "0:"
    INDEX 01 00:38:30
  TRACK 50 AUDIO
    TITLE "17:cjc020_6118"
    INDEX 01 00:39:11
  TRACK 51 AUDIO
    TITLE "0:"
    INDEX 01 00:40:24
  TRACK 52 AUDIO
    TITLE "16:cjc020_6119"
    INDEX 01 00:40:30
  TRACK 53 AUDIO
    TITLE "0:"
    INDEX 01 00:41:38
  TRACK 54 AUDIO
    TITLE "17:cjc020_6120"
    INDEX 01 00:42:19
  TRACK 55 AUDIO
    TITLE "0:"
    INDEX 01 00:43:11
  TRACK 56 AUDIO
    TITLE "16:cjc020_6121"
    INDEX 01 00:43:17
  TRACK 57 AUDIO
    TITLE "0:"
    INDEX 01 00:44:26
  TRACK 58 AUDIO
    TITLE "17:cjc020_6122"
    INDEX 01 00:45:10
  TRACK 59 AUDIO
    TITLE "0:"
    INDEX 01 00:46:07
  TRACK 60 AUDIO
    TITLE "16:cjc020_6123"
    INDEX 01 00:46:09
  TRACK 61 AUDIO
    TITLE "0:"
    INDEX 01 00:47:34
